<?xml version="1.0" standalone="no"?>
<!DOCTYPE svg PUBLIC "-//W3C//DTD SVG 20010904//EN"
 "http://www.w3.org/TR/2001/REC-SVG-20010904/DTD/svg10.dtd">
<svg version="1.0" xmlns="http://www.w3.org/2000/svg"
 width="700.000000pt" height="700.000000pt" viewBox="0 0 700.000000 700.000000"
 preserveAspectRatio="xMidYMid meet">
<metadata>
Created by potrace 1.14, written by Peter Selinger 2001-2017
</metadata>
<g transform="translate(0.000000,700.000000) scale(0.100000,-0.100000)"
fill="#000000" stroke="none">
<path d="M3520 6112 c-80 -9 -270 -82 -270 -104 0 -4 -4 -8 -9 -8 -6 0 -86
-43 -178 -96 -92 -53 -186 -106 -208 -119 -22 -12 -100 -57 -174 -99 -73 -42
-135 -76 -136 -76 -1 0 -42 -23 -91 -52 -49 -28 -125 -71 -169 -96 -44 -24
-149 -85 -233 -134 -84 -49 -174 -101 -200 -115 -26 -15 -63 -35 -82 -46 -19
-10 -64 -36 -100 -57 -36 -20 -105 -59 -155 -85 -238 -126 -341 -251 -376
-455 -10 -59 -13 -2144 -3 -2221 17 -129 57 -227 131 -318 58 -72 133 -127
283 -208 30 -17 84 -47 120 -68 36 -21 85 -49 110 -63 25 -14 59 -33 75 -42
17 -10 131 -75 255 -145 124 -70 297 -169 385 -220 88 -51 187 -107 220 -126
33 -19 111 -63 174 -99 191 -110 222 -128 337 -190 61 -33 118 -60 126 -60 8
0 19 -5 24 -10 16 -16 153 -42 220 -42 133 0 240 40 494 185 58 32 125 71 150
85 25 14 88 50 140 80 52 30 113 65 135 77 22 13 83 47 136 77 52 30 102 58
110 61 8 4 28 15 44 26 31 18 302 172 410 231 33 18 77 44 97 57 21 12 40 23
43 23 2 0 62 33 132 73 71 41 160 91 198 112 230 125 324 238 372 445 13 59
15 223 15 1170 0 766 -3 1079 -11 1115 -26 113 -63 188 -136 275 -52 63 -108
102 -275 197 -247 138 -692 388 -745 418 -27 15 -62 36 -77 46 -14 11 -28 19
-31 19 -4 0 -254 141 -736 416 -51 30 -95 54 -96 54 -2 0 -31 16 -65 35 -34
19 -92 44 -128 55 -61 19 -190 30 -252 22z"/>
</g>
</svg>
