<?xml version="1.0" encoding="UTF-8" standalone="no"?>
<!DOCTYPE svg PUBLIC "-//W3C//DTD SVG 1.1//EN" "http://www.w3.org/Graphics/SVG/1.1/DTD/svg11.dtd">
<svg xmlns="http://www.w3.org/2000/svg" version="1.1" viewBox="0.00 0.00 1024.00 1024.00">
    <g stroke-width="2.00" fill="none" stroke-linecap="butt">
        <path stroke="#0c0d0c" vector-effect="non-scaling-stroke" d="
M 200.55 439.00
Q 200.30 542.85 200.51 656.50
Q 200.53 666.01 200.69 676.32
C 200.80 683.06 201.77 688.83 204.18 694.64
C 206.57 700.39 212.54 705.76 217.43 709.22
Q 223.45 713.49 232.52 718.36
C 237.59 721.08 242.26 724.00 247.23 726.76
Q 265.38 736.87 282.57 746.70
Q 315.84 765.72 349.07 784.81
Q 357.90 789.88 366.46 794.68
C 383.09 803.99 399.58 814.29 416.60 823.59
C 421.48 826.25 426.01 829.13 431.09 831.87
Q 449.53 841.82 475.56 857.12
C 484.93 862.63 494.40 867.62 503.61 872.93
Q 511.31 877.37 517.10 878.69
Q 531.46 881.97 544.35 874.80
Q 575.03 857.73 603.97 841.20
Q 616.56 834.00 629.61 826.48
Q 664.68 806.24 699.25 786.73
C 713.73 778.56 728.07 770.69 741.85 762.87
Q 766.97 748.60 795.42 732.60
Q 799.29 730.43 803.18 728.27
Q 814.23 722.14 826.95 714.96
Q 838.87 708.23 843.10 703.38
Q 852.60 692.51 852.45 677.77
Q 852.10 643.62 852.38 623.44
Q 852.53 613.10 852.46 603.54
Q 852.18 564.70 852.40 525.80
Q 852.45 515.74 852.42 505.74
Q 852.21 437.69 852.55 369.64
Q 852.57 366.35 852.38 362.66
C 851.68 349.27 845.26 338.42 833.49 331.80
Q 803.81 315.10 772.02 296.79
C 763.82 292.06 755.02 287.36 746.80 282.65
Q 725.35 270.36 691.35 250.75
C 682.95 245.91 674.48 241.45 666.24 236.48
Q 657.44 231.16 648.94 226.50
Q 630.11 216.17 611.62 205.35
Q 603.04 200.33 594.26 195.39
Q 574.44 184.25 549.69 170.05
Q 543.31 166.38 536.53 163.90
C 527.91 160.75 519.05 162.15 510.80 166.19
C 499.35 171.78 485.07 180.81 471.91 188.00
C 455.87 196.77 439.47 206.65 422.98 215.81
Q 405.70 225.42 388.95 235.51
C 384.31 238.30 379.81 240.66 375.08 243.22
C 365.22 248.56 355.64 254.53 345.86 259.79
C 331.28 267.61 317.31 276.45 303.49 283.96
Q 296.30 287.87 290.02 291.65
C 280.37 297.46 271.81 301.98 262.98 307.20
Q 256.31 311.14 249.36 314.81
Q 230.46 324.80 215.96 334.15
C 205.42 340.94 200.89 351.58 200.64 364.32
Q 200.17 387.43 200.44 411.49
Q 200.58 424.85 200.55 439.00" />
        <path stroke="#0c0d0c" vector-effect="non-scaling-stroke" d="
M 227.93 350.43
C 225.09 352.03 220.82 354.23 220.46 357.88
Q 220.21 360.34 220.22 362.67
C 220.29 380.39 220.02 396.90 220.01 414.00
Q 219.97 543.40 220.04 667.50
Q 220.05 674.83 220.34 683.10
Q 220.46 686.59 222.88 688.39
C 226.02 690.73 229.21 692.94 232.62 694.91
Q 251.17 705.60 269.98 716.19
Q 273.65 718.26 277.22 720.33
Q 305.59 736.74 333.18 752.41
Q 341.45 757.11 350.54 762.38
Q 378.72 778.72 406.54 794.29
Q 415.06 799.05 423.89 804.22
Q 446.16 817.24 469.04 830.08
Q 477.41 834.78 486.35 840.10
Q 503.35 850.24 522.77 860.90
Q 525.10 862.18 526.91 861.48
C 532.06 859.47 536.68 855.83 541.60 853.18
C 551.15 848.04 560.67 842.66 570.07 837.15
Q 578.37 832.28 589.52 826.02
Q 619.15 809.38 657.53 787.20
Q 665.97 782.32 674.91 777.30
Q 693.69 766.77 713.66 755.45
Q 734.72 743.52 756.67 731.05
Q 773.33 721.59 788.77 713.28
Q 798.79 707.89 828.97 689.73
Q 832.64 687.53 832.65 683.73
Q 832.89 555.78 832.64 430.50
Q 832.56 390.41 832.94 359.50
Q 833.00 354.47 828.70 352.04
Q 790.89 330.66 754.53 309.91
Q 747.91 306.13 743.48 303.80
Q 737.72 300.77 732.46 297.61
C 723.05 291.97 713.87 286.92 704.43 281.46
Q 686.99 271.39 669.93 261.50
Q 665.99 259.21 661.70 256.61
Q 657.71 254.18 653.41 251.85
C 643.97 246.72 635.04 240.98 625.63 236.07
Q 617.17 231.66 609.33 227.02
C 597.18 219.84 585.50 213.52 573.59 206.61
Q 565.42 201.87 556.16 196.78
Q 542.59 189.30 529.86 181.86
C 527.74 180.62 525.69 179.87 523.64 181.16
C 518.72 184.29 513.83 187.53 508.64 190.34
C 494.09 198.22 479.91 206.73 465.72 214.49
Q 444.31 226.22 423.72 238.28
Q 414.14 243.89 406.39 248.27
Q 387.09 259.18 367.49 270.56
Q 358.58 275.73 350.11 280.47
Q 311.45 302.14 273.27 324.26
C 258.24 332.97 243.22 341.79 227.93 350.43" />
        <path stroke="#0c0d0c" vector-effect="non-scaling-stroke" d="
M 291.06 338.77
C 287.53 340.80 284.22 343.15 280.61 345.17
Q 269.16 351.55 257.94 358.47
Q 256.15 359.57 256.16 361.62
C 256.27 379.15 256.78 408.57 256.77 435.25
Q 256.70 525.25 256.59 615.25
Q 256.54 647.46 256.45 681.90
A 2.82 2.80 13.8 0 0 257.98 684.41
C 263.70 687.36 269.57 690.25 275.15 693.54
Q 289.28 701.86 304.78 710.53
C 318.49 718.20 332.23 726.42 346.20 734.11
C 350.17 736.30 354.09 738.80 358.17 741.09
Q 374.82 750.45 390.45 759.50
Q 420.58 776.96 457.04 797.57
Q 466.15 802.72 474.36 807.57
Q 500.28 822.88 525.40 836.33
Q 525.79 836.54 526.23 836.44
Q 527.33 836.18 528.35 835.58
Q 559.96 816.90 594.41 797.97
C 600.24 794.77 605.87 791.15 611.67 787.91
Q 640.67 771.67 670.75 754.42
C 693.63 741.30 716.73 728.61 739.70 715.37
C 755.71 706.13 771.76 697.31 787.94 688.21
Q 792.00 685.93 795.96 683.95
A 3.19 3.18 -13.0 0 0 797.73 681.13
C 797.87 667.53 797.21 654.23 797.21 640.72
Q 797.27 511.93 797.42 391.26
Q 797.44 376.01 797.82 361.36
A 3.26 3.26 0.0 0 0 796.33 358.55
C 792.54 356.10 788.33 354.23 784.34 351.98
Q 751.04 333.12 721.00 315.72
C 702.68 305.12 684.82 295.32 667.03 284.75
C 654.95 277.57 642.55 271.11 630.32 263.86
Q 610.20 251.94 588.48 239.74
Q 580.60 235.31 572.18 230.30
C 562.35 224.46 552.17 219.33 542.27 213.28
Q 535.42 209.11 528.32 205.53
A 3.34 3.34 0.0 0 0 525.29 205.55
C 514.43 211.20 503.96 217.60 493.26 223.50
Q 475.89 233.06 459.24 242.54
Q 454.86 245.04 450.13 247.84
C 436.32 255.99 423.23 263.64 409.76 271.19
Q 364.63 296.48 344.52 308.36
Q 338.89 311.69 333.78 314.42
C 324.79 319.24 316.22 324.79 307.36 329.63
Q 298.99 334.21 291.06 338.77" />
        <path stroke="#0c0d0c" vector-effect="non-scaling-stroke" d="
M 288.36 372.55
Q 286.25 373.85 284.32 375.30
A 2.54 2.50 -18.7 0 0 283.31 377.31
L 283.26 665.50
Q 283.26 667.20 284.75 667.99
C 288.44 669.95 292.21 671.57 295.86 673.65
Q 325.99 690.82 356.12 707.99
Q 364.54 712.79 373.44 717.99
Q 398.61 732.69 424.35 747.21
Q 427.64 749.06 430.68 750.79
Q 473.07 774.91 514.11 798.09
Q 518.51 800.58 524.60 803.45
A 3.89 3.87 44.1 0 0 528.03 803.40
Q 531.41 801.68 535.28 799.51
Q 561.68 784.69 587.49 770.22
C 595.30 765.83 603.08 760.97 610.99 756.55
Q 619.49 751.80 628.37 746.66
Q 635.38 742.61 642.74 738.60
Q 650.31 734.47 657.07 730.51
Q 675.31 719.83 694.52 708.98
Q 719.97 694.62 743.89 681.25
C 750.47 677.58 759.89 671.65 768.24 667.39
C 769.72 666.64 771.28 666.13 771.17 664.17
C 770.92 660.09 771.34 655.97 771.33 651.84
C 771.31 643.03 771.02 634.22 771.09 625.40
Q 771.35 592.86 771.32 563.01
Q 771.24 492.83 771.10 420.75
C 771.08 407.20 771.41 393.23 771.27 379.24
Q 771.24 376.92 769.21 375.57
C 758.78 368.67 747.84 363.04 736.99 356.67
Q 720.54 347.02 703.94 337.63
Q 695.36 332.79 686.59 327.66
Q 642.07 301.60 596.36 275.89
Q 590.87 272.81 584.88 269.30
C 575.33 263.72 565.71 258.38 556.18 252.76
Q 543.46 245.25 529.01 237.40
C 526.09 235.81 523.18 238.05 520.84 239.40
Q 486.35 259.25 454.41 277.19
C 449.33 280.04 444.50 283.13 439.38 286.00
C 396.42 310.07 354.97 334.50 311.75 359.32
C 303.98 363.78 296.19 367.73 288.36 372.55" />
        <path stroke="#7e7e7e" vector-effect="non-scaling-stroke" d="
M 513.68 280.66
C 497.58 289.66 480.32 299.99 463.70 309.62
C 437.16 325.00 410.51 340.74 383.60 356.00
Q 350.83 374.58 318.31 393.28
A 1.61 1.59 -15.5 0 0 317.51 394.68
Q 317.53 398.07 317.51 401.50
Q 316.98 506.07 317.31 647.52
A 2.32 2.31 -73.5 0 0 318.34 649.43
Q 321.96 651.83 325.57 653.90
Q 380.89 685.65 443.86 721.63
Q 480.75 742.71 518.39 765.10
Q 522.44 767.51 526.55 769.57
Q 527.00 769.80 527.43 769.53
Q 537.69 763.06 548.16 756.93
C 589.23 732.88 630.35 708.75 671.92 685.55
Q 694.99 672.67 719.26 658.53
C 723.66 655.97 728.73 653.56 733.52 650.81
Q 735.24 649.82 736.70 648.58
Q 737.08 648.26 737.08 647.77
L 737.04 395.09
A 1.12 1.11 -73.3 0 0 736.54 394.16
Q 730.99 390.58 725.22 387.36
C 658.65 350.15 593.31 312.45 526.51 273.82
A 0.54 0.51 44.6 0 0 525.98 273.81
Q 519.83 277.22 513.68 280.66" />
        <path stroke="#7e7e7e" vector-effect="non-scaling-stroke" d="
M 357.20 627.75
L 526.37 724.91
Q 526.71 725.11 527.06 724.92
Q 533.51 721.42 540.41 717.43
Q 609.85 677.27 679.26 637.08
C 684.97 633.77 690.80 630.66 696.53 627.30
A 1.66 1.66 0.0 0 0 697.35 625.87
L 697.37 417.35
A 1.30 1.28 -73.6 0 0 696.79 416.27
Q 690.97 412.52 683.31 408.17
Q 663.47 396.91 647.04 387.72
Q 638.52 382.95 629.75 377.79
C 595.90 357.88 561.79 338.70 527.43 318.37
A 1.54 1.53 46.7 0 0 525.97 318.32
C 520.73 320.93 515.84 323.93 510.80 326.81
Q 434.06 370.76 358.13 414.67
Q 356.96 415.35 356.96 416.70
L 356.98 627.36
Q 356.98 627.62 357.20 627.75" />
        <path stroke="#7e7e7e" vector-effect="non-scaling-stroke" d="
M 499.36 595.75
Q 498.71 595.77 499.12 595.27
C 511.03 580.63 522.83 565.23 535.06 550.52
C 545.92 537.47 556.57 523.88 567.08 511.25
C 575.93 500.62 585.06 489.87 593.65 479.10
Q 601.09 469.77 610.38 458.63
Q 613.80 454.53 614.00 450.65
Q 614.47 441.65 614.01 426.14
Q 613.91 422.68 612.06 419.75
Q 607.25 412.17 598.00 412.14
C 550.75 411.98 503.96 412.00 456.72 412.19
Q 450.49 412.21 447.62 413.33
C 441.55 415.68 438.50 421.04 438.56 427.68
C 438.60 431.78 438.66 435.90 438.64 440.01
C 438.58 448.28 443.86 454.12 452.32 454.07
Q 504.03 453.73 555.23 454.05
Q 557.39 454.07 556.02 455.74
Q 515.26 505.35 471.48 558.63
C 461.92 570.27 452.36 582.18 442.37 593.87
Q 439.42 597.31 439.21 601.06
Q 438.84 607.43 438.64 617.32
Q 438.50 624.63 440.34 628.31
Q 444.80 637.24 455.85 637.24
Q 525.02 637.28 596.14 637.22
C 605.31 637.22 613.87 633.79 614.15 623.08
Q 614.32 616.39 614.19 609.01
C 614.03 599.83 608.38 595.13 599.47 595.16
Q 555.76 595.29 503.84 595.26
C 502.20 595.26 500.89 595.69 499.36 595.75" />
    </g>
    <path fill="#000000" d="
M 673.60 842.99
C 656.61 852.69 640.25 862.42 623.99 871.51
Q 603.88 882.74 583.60 894.45
C 576.72 898.43 569.52 902.03 562.33 905.39
Q 556.32 908.20 549.12 909.98
C 538.22 912.69 526.86 914.21 515.89 912.67
C 509.10 911.72 502.18 910.31 495.71 907.95
Q 485.30 904.14 477.36 899.85
C 471.53 896.71 465.70 893.69 459.91 890.31
C 447.09 882.82 433.67 875.54 420.83 868.00
Q 412.78 863.27 403.12 857.83
Q 382.64 846.29 361.77 834.31
Q 352.76 829.14 345.18 824.64
C 334.79 818.48 324.42 813.07 314.20 807.04
Q 307.11 802.87 300.00 798.91
C 290.16 793.44 280.10 787.56 270.15 782.05
Q 249.79 770.79 233.54 761.14
Q 226.99 757.24 220.22 753.63
C 210.76 748.58 202.10 743.32 193.94 736.45
C 189.46 732.68 185.74 727.99 182.14 723.30
C 176.32 715.75 171.75 706.55 169.50 697.13
C 168.55 693.14 167.25 689.22 166.75 685.23
Q 165.02 671.13 165.15 663.73
Q 165.55 641.68 165.26 621.75
C 164.92 599.01 165.77 576.35 165.13 553.75
C 164.37 526.68 166.15 499.72 165.14 472.51
Q 164.82 463.76 164.92 455.00
Q 165.27 426.32 165.43 400.50
C 165.47 394.07 165.01 387.56 164.93 380.54
Q 164.71 362.89 167.77 349.63
Q 170.17 339.19 174.45 330.97
Q 182.49 315.54 195.44 304.96
C 203.47 298.40 213.58 293.03 223.13 288.11
Q 228.55 285.32 234.82 281.74
C 255.90 269.72 277.45 257.91 298.63 245.51
C 305.32 241.59 312.14 238.00 318.79 233.78
Q 326.47 228.92 334.20 224.97
C 342.64 220.66 350.26 215.55 358.38 211.09
Q 385.09 196.41 402.00 186.56
Q 408.28 182.90 414.89 179.41
C 420.61 176.39 426.09 172.80 431.86 169.58
Q 453.92 157.26 475.67 144.46
C 484.41 139.31 494.13 134.31 503.86 131.80
C 514.07 129.17 525.62 128.98 536.20 129.86
Q 552.57 131.22 567.78 139.48
Q 590.88 152.02 614.19 165.63
C 626.54 172.84 639.22 179.70 651.58 186.97
C 667.80 196.51 684.01 205.42 700.58 214.68
C 706.11 217.77 711.44 221.12 716.98 224.20
Q 729.54 231.17 739.76 237.15
C 749.14 242.63 762.64 249.74 773.80 256.27
C 781.99 261.06 790.35 265.45 798.56 270.12
Q 819.75 282.16 842.83 294.89
Q 855.73 302.02 864.60 311.59
Q 885.36 334.02 887.95 364.75
Q 888.35 369.44 888.38 387.75
C 888.41 411.51 888.71 435.82 888.44 459.99
Q 888.25 476.86 888.30 497.25
Q 888.35 520.28 888.43 543.25
Q 888.70 621.60 888.15 671.75
Q 888.06 679.20 885.60 690.92
C 880.81 713.76 867.77 732.08 848.04 744.88
C 839.33 750.53 828.49 755.50 818.78 761.19
C 800.16 772.11 781.30 782.42 761.73 793.44
Q 745.42 802.63 726.67 813.08
Q 717.87 817.98 709.31 822.99
C 697.53 829.87 685.21 836.37 673.60 842.99
Z
M 200.55 439.00
Q 200.30 542.85 200.51 656.50
Q 200.53 666.01 200.69 676.32
C 200.80 683.06 201.77 688.83 204.18 694.64
C 206.57 700.39 212.54 705.76 217.43 709.22
Q 223.45 713.49 232.52 718.36
C 237.59 721.08 242.26 724.00 247.23 726.76
Q 265.38 736.87 282.57 746.70
Q 315.84 765.72 349.07 784.81
Q 357.90 789.88 366.46 794.68
C 383.09 803.99 399.58 814.29 416.60 823.59
C 421.48 826.25 426.01 829.13 431.09 831.87
Q 449.53 841.82 475.56 857.12
C 484.93 862.63 494.40 867.62 503.61 872.93
Q 511.31 877.37 517.10 878.69
Q 531.46 881.97 544.35 874.80
Q 575.03 857.73 603.97 841.20
Q 616.56 834.00 629.61 826.48
Q 664.68 806.24 699.25 786.73
C 713.73 778.56 728.07 770.69 741.85 762.87
Q 766.97 748.60 795.42 732.60
Q 799.29 730.43 803.18 728.27
Q 814.23 722.14 826.95 714.96
Q 838.87 708.23 843.10 703.38
Q 852.60 692.51 852.45 677.77
Q 852.10 643.62 852.38 623.44
Q 852.53 613.10 852.46 603.54
Q 852.18 564.70 852.40 525.80
Q 852.45 515.74 852.42 505.74
Q 852.21 437.69 852.55 369.64
Q 852.57 366.35 852.38 362.66
C 851.68 349.27 845.26 338.42 833.49 331.80
Q 803.81 315.10 772.02 296.79
C 763.82 292.06 755.02 287.36 746.80 282.65
Q 725.35 270.36 691.35 250.75
C 682.95 245.91 674.48 241.45 666.24 236.48
Q 657.44 231.16 648.94 226.50
Q 630.11 216.17 611.62 205.35
Q 603.04 200.33 594.26 195.39
Q 574.44 184.25 549.69 170.05
Q 543.31 166.38 536.53 163.90
C 527.91 160.75 519.05 162.15 510.80 166.19
C 499.35 171.78 485.07 180.81 471.91 188.00
C 455.87 196.77 439.47 206.65 422.98 215.81
Q 405.70 225.42 388.95 235.51
C 384.31 238.30 379.81 240.66 375.08 243.22
C 365.22 248.56 355.64 254.53 345.86 259.79
C 331.28 267.61 317.31 276.45 303.49 283.96
Q 296.30 287.87 290.02 291.65
C 280.37 297.46 271.81 301.98 262.98 307.20
Q 256.31 311.14 249.36 314.81
Q 230.46 324.80 215.96 334.15
C 205.42 340.94 200.89 351.58 200.64 364.32
Q 200.17 387.43 200.44 411.49
Q 200.58 424.85 200.55 439.00
Z" />
    <path fill="#181918" d="
M 200.55 439.00
Q 200.58 424.85 200.44 411.49
Q 200.17 387.43 200.64 364.32
C 200.89 351.58 205.42 340.94 215.96 334.15
Q 230.46 324.80 249.36 314.81
Q 256.31 311.14 262.98 307.20
C 271.81 301.98 280.37 297.46 290.02 291.65
Q 296.30 287.87 303.49 283.96
C 317.31 276.45 331.28 267.61 345.86 259.79
C 355.64 254.53 365.22 248.56 375.08 243.22
C 379.81 240.66 384.31 238.30 388.95 235.51
Q 405.70 225.42 422.98 215.81
C 439.47 206.65 455.87 196.77 471.91 188.00
C 485.07 180.81 499.35 171.78 510.80 166.19
C 519.05 162.15 527.91 160.75 536.53 163.90
Q 543.31 166.38 549.69 170.05
Q 574.44 184.25 594.26 195.39
Q 603.04 200.33 611.62 205.35
Q 630.11 216.17 648.94 226.50
Q 657.44 231.16 666.24 236.48
C 674.48 241.45 682.95 245.91 691.35 250.75
Q 725.35 270.36 746.80 282.65
C 755.02 287.36 763.82 292.06 772.02 296.79
Q 803.81 315.10 833.49 331.80
C 845.26 338.42 851.68 349.27 852.38 362.66
Q 852.57 366.35 852.55 369.64
Q 852.21 437.69 852.42 505.74
Q 852.45 515.74 852.40 525.80
Q 852.18 564.70 852.46 603.54
Q 852.53 613.10 852.38 623.44
Q 852.10 643.62 852.45 677.77
Q 852.60 692.51 843.10 703.38
Q 838.87 708.23 826.95 714.96
Q 814.23 722.14 803.18 728.27
Q 799.29 730.43 795.42 732.60
Q 766.97 748.60 741.85 762.87
C 728.07 770.69 713.73 778.56 699.25 786.73
Q 664.68 806.24 629.61 826.48
Q 616.56 834.00 603.97 841.20
Q 575.03 857.73 544.35 874.80
Q 531.46 881.97 517.10 878.69
Q 511.31 877.37 503.61 872.93
C 494.40 867.62 484.93 862.63 475.56 857.12
Q 449.53 841.82 431.09 831.87
C 426.01 829.13 421.48 826.25 416.60 823.59
C 399.58 814.29 383.09 803.99 366.46 794.68
Q 357.90 789.88 349.07 784.81
Q 315.84 765.72 282.57 746.70
Q 265.38 736.87 247.23 726.76
C 242.26 724.00 237.59 721.08 232.52 718.36
Q 223.45 713.49 217.43 709.22
C 212.54 705.76 206.57 700.39 204.18 694.64
C 201.77 688.83 200.80 683.06 200.69 676.32
Q 200.53 666.01 200.51 656.50
Q 200.30 542.85 200.55 439.00
Z
M 227.93 350.43
C 225.09 352.03 220.82 354.23 220.46 357.88
Q 220.21 360.34 220.22 362.67
C 220.29 380.39 220.02 396.90 220.01 414.00
Q 219.97 543.40 220.04 667.50
Q 220.05 674.83 220.34 683.10
Q 220.46 686.59 222.88 688.39
C 226.02 690.73 229.21 692.94 232.62 694.91
Q 251.17 705.60 269.98 716.19
Q 273.65 718.26 277.22 720.33
Q 305.59 736.74 333.18 752.41
Q 341.45 757.11 350.54 762.38
Q 378.72 778.72 406.54 794.29
Q 415.06 799.05 423.89 804.22
Q 446.16 817.24 469.04 830.08
Q 477.41 834.78 486.35 840.10
Q 503.35 850.24 522.77 860.90
Q 525.10 862.18 526.91 861.48
C 532.06 859.47 536.68 855.83 541.60 853.18
C 551.15 848.04 560.67 842.66 570.07 837.15
Q 578.37 832.28 589.52 826.02
Q 619.15 809.38 657.53 787.20
Q 665.97 782.32 674.91 777.30
Q 693.69 766.77 713.66 755.45
Q 734.72 743.52 756.67 731.05
Q 773.33 721.59 788.77 713.28
Q 798.79 707.89 828.97 689.73
Q 832.64 687.53 832.65 683.73
Q 832.89 555.78 832.64 430.50
Q 832.56 390.41 832.94 359.50
Q 833.00 354.47 828.70 352.04
Q 790.89 330.66 754.53 309.91
Q 747.91 306.13 743.48 303.80
Q 737.72 300.77 732.46 297.61
C 723.05 291.97 713.87 286.92 704.43 281.46
Q 686.99 271.39 669.93 261.50
Q 665.99 259.21 661.70 256.61
Q 657.71 254.18 653.41 251.85
C 643.97 246.72 635.04 240.98 625.63 236.07
Q 617.17 231.66 609.33 227.02
C 597.18 219.84 585.50 213.52 573.59 206.61
Q 565.42 201.87 556.16 196.78
Q 542.59 189.30 529.86 181.86
C 527.74 180.62 525.69 179.87 523.64 181.16
C 518.72 184.29 513.83 187.53 508.64 190.34
C 494.09 198.22 479.91 206.73 465.72 214.49
Q 444.31 226.22 423.72 238.28
Q 414.14 243.89 406.39 248.27
Q 387.09 259.18 367.49 270.56
Q 358.58 275.73 350.11 280.47
Q 311.45 302.14 273.27 324.26
C 258.24 332.97 243.22 341.79 227.93 350.43
Z" />
    <path fill="#000000" d="
M 220.46 357.88
C 220.82 354.23 225.09 352.03 227.93 350.43
C 243.22 341.79 258.24 332.97 273.27 324.26
Q 311.45 302.14 350.11 280.47
Q 358.58 275.73 367.49 270.56
Q 387.09 259.18 406.39 248.27
Q 414.14 243.89 423.72 238.28
Q 444.31 226.22 465.72 214.49
C 479.91 206.73 494.09 198.22 508.64 190.34
C 513.83 187.53 518.72 184.29 523.64 181.16
C 525.69 179.87 527.74 180.62 529.86 181.86
Q 542.59 189.30 556.16 196.78
Q 565.42 201.87 573.59 206.61
C 585.50 213.52 597.18 219.84 609.33 227.02
Q 617.17 231.66 625.63 236.07
C 635.04 240.98 643.97 246.72 653.41 251.85
Q 657.71 254.18 661.70 256.61
Q 665.99 259.21 669.93 261.50
Q 686.99 271.39 704.43 281.46
C 713.87 286.92 723.05 291.97 732.46 297.61
Q 737.72 300.77 743.48 303.80
Q 747.91 306.13 754.53 309.91
Q 790.89 330.66 828.70 352.04
Q 833.00 354.47 832.94 359.50
Q 832.56 390.41 832.64 430.50
Q 832.89 555.78 832.65 683.73
Q 832.64 687.53 828.97 689.73
Q 798.79 707.89 788.77 713.28
Q 773.33 721.59 756.67 731.05
Q 734.72 743.52 713.66 755.45
Q 693.69 766.77 674.91 777.30
Q 665.97 782.32 657.53 787.20
Q 619.15 809.38 589.52 826.02
Q 578.37 832.28 570.07 837.15
C 560.67 842.66 551.15 848.04 541.60 853.18
C 536.68 855.83 532.06 859.47 526.91 861.48
Q 525.10 862.18 522.77 860.90
Q 503.35 850.24 486.35 840.10
Q 477.41 834.78 469.04 830.08
Q 446.16 817.24 423.89 804.22
Q 415.06 799.05 406.54 794.29
Q 378.72 778.72 350.54 762.38
Q 341.45 757.11 333.18 752.41
Q 305.59 736.74 277.22 720.33
Q 273.65 718.26 269.98 716.19
Q 251.17 705.60 232.62 694.91
C 229.21 692.94 226.02 690.73 222.88 688.39
Q 220.46 686.59 220.34 683.10
Q 220.05 674.83 220.04 667.50
Q 219.97 543.40 220.01 414.00
C 220.02 396.90 220.29 380.39 220.22 362.67
Q 220.21 360.34 220.46 357.88
Z
M 291.06 338.77
C 287.53 340.80 284.22 343.15 280.61 345.17
Q 269.16 351.55 257.94 358.47
Q 256.15 359.57 256.16 361.62
C 256.27 379.15 256.78 408.57 256.77 435.25
Q 256.70 525.25 256.59 615.25
Q 256.54 647.46 256.45 681.90
A 2.82 2.80 13.8 0 0 257.98 684.41
C 263.70 687.36 269.57 690.25 275.15 693.54
Q 289.28 701.86 304.78 710.53
C 318.49 718.20 332.23 726.42 346.20 734.11
C 350.17 736.30 354.09 738.80 358.17 741.09
Q 374.82 750.45 390.45 759.50
Q 420.58 776.96 457.04 797.57
Q 466.15 802.72 474.36 807.57
Q 500.28 822.88 525.40 836.33
Q 525.79 836.54 526.23 836.44
Q 527.33 836.18 528.35 835.58
Q 559.96 816.90 594.41 797.97
C 600.24 794.77 605.87 791.15 611.67 787.91
Q 640.67 771.67 670.75 754.42
C 693.63 741.30 716.73 728.61 739.70 715.37
C 755.71 706.13 771.76 697.31 787.94 688.21
Q 792.00 685.93 795.96 683.95
A 3.19 3.18 -13.0 0 0 797.73 681.13
C 797.87 667.53 797.21 654.23 797.21 640.72
Q 797.27 511.93 797.42 391.26
Q 797.44 376.01 797.82 361.36
A 3.26 3.26 0.0 0 0 796.33 358.55
C 792.54 356.10 788.33 354.23 784.34 351.98
Q 751.04 333.12 721.00 315.72
C 702.68 305.12 684.82 295.32 667.03 284.75
C 654.95 277.57 642.55 271.11 630.32 263.86
Q 610.20 251.94 588.48 239.74
Q 580.60 235.31 572.18 230.30
C 562.35 224.46 552.17 219.33 542.27 213.28
Q 535.42 209.11 528.32 205.53
A 3.34 3.34 0.0 0 0 525.29 205.55
C 514.43 211.20 503.96 217.60 493.26 223.50
Q 475.89 233.06 459.24 242.54
Q 454.86 245.04 450.13 247.84
C 436.32 255.99 423.23 263.64 409.76 271.19
Q 364.63 296.48 344.52 308.36
Q 338.89 311.69 333.78 314.42
C 324.79 319.24 316.22 324.79 307.36 329.63
Q 298.99 334.21 291.06 338.77
Z" />
    <path fill="#181918" d="
M 291.06 338.77
Q 298.99 334.21 307.36 329.63
C 316.22 324.79 324.79 319.24 333.78 314.42
Q 338.89 311.69 344.52 308.36
Q 364.63 296.48 409.76 271.19
C 423.23 263.64 436.32 255.99 450.13 247.84
Q 454.86 245.04 459.24 242.54
Q 475.89 233.06 493.26 223.50
C 503.96 217.60 514.43 211.20 525.29 205.55
A 3.34 3.34 0.0 0 1 528.32 205.53
Q 535.42 209.11 542.27 213.28
C 552.17 219.33 562.35 224.46 572.18 230.30
Q 580.60 235.31 588.48 239.74
Q 610.20 251.94 630.32 263.86
C 642.55 271.11 654.95 277.57 667.03 284.75
C 684.82 295.32 702.68 305.12 721.00 315.72
Q 751.04 333.12 784.34 351.98
C 788.33 354.23 792.54 356.10 796.33 358.55
A 3.26 3.26 0.0 0 1 797.82 361.36
Q 797.44 376.01 797.42 391.26
Q 797.27 511.93 797.21 640.72
C 797.21 654.23 797.87 667.53 797.73 681.13
A 3.19 3.18 -13.0 0 1 795.96 683.95
Q 792.00 685.93 787.94 688.21
C 771.76 697.31 755.71 706.13 739.70 715.37
C 716.73 728.61 693.63 741.30 670.75 754.42
Q 640.67 771.67 611.67 787.91
C 605.87 791.15 600.24 794.77 594.41 797.97
Q 559.96 816.90 528.35 835.58
Q 527.33 836.18 526.23 836.44
Q 525.79 836.54 525.40 836.33
Q 500.28 822.88 474.36 807.57
Q 466.15 802.72 457.04 797.57
Q 420.58 776.96 390.45 759.50
Q 374.82 750.45 358.17 741.09
C 354.09 738.80 350.17 736.30 346.20 734.11
C 332.23 726.42 318.49 718.20 304.78 710.53
Q 289.28 701.86 275.15 693.54
C 269.57 690.25 263.70 687.36 257.98 684.41
A 2.82 2.80 13.8 0 1 256.45 681.90
Q 256.54 647.46 256.59 615.25
Q 256.70 525.25 256.77 435.25
C 256.78 408.57 256.27 379.15 256.16 361.62
Q 256.15 359.57 257.94 358.47
Q 269.16 351.55 280.61 345.17
C 284.22 343.15 287.53 340.80 291.06 338.77
Z
M 288.36 372.55
Q 286.25 373.85 284.32 375.30
A 2.54 2.50 -18.7 0 0 283.31 377.31
L 283.26 665.50
Q 283.26 667.20 284.75 667.99
C 288.44 669.95 292.21 671.57 295.86 673.65
Q 325.99 690.82 356.12 707.99
Q 364.54 712.79 373.44 717.99
Q 398.61 732.69 424.35 747.21
Q 427.64 749.06 430.68 750.79
Q 473.07 774.91 514.11 798.09
Q 518.51 800.58 524.60 803.45
A 3.89 3.87 44.1 0 0 528.03 803.40
Q 531.41 801.68 535.28 799.51
Q 561.68 784.69 587.49 770.22
C 595.30 765.83 603.08 760.97 610.99 756.55
Q 619.49 751.80 628.37 746.66
Q 635.38 742.61 642.74 738.60
Q 650.31 734.47 657.07 730.51
Q 675.31 719.83 694.52 708.98
Q 719.97 694.62 743.89 681.25
C 750.47 677.58 759.89 671.65 768.24 667.39
C 769.72 666.64 771.28 666.13 771.17 664.17
C 770.92 660.09 771.34 655.97 771.33 651.84
C 771.31 643.03 771.02 634.22 771.09 625.40
Q 771.35 592.86 771.32 563.01
Q 771.24 492.83 771.10 420.75
C 771.08 407.20 771.41 393.23 771.27 379.24
Q 771.24 376.92 769.21 375.57
C 758.78 368.67 747.84 363.04 736.99 356.67
Q 720.54 347.02 703.94 337.63
Q 695.36 332.79 686.59 327.66
Q 642.07 301.60 596.36 275.89
Q 590.87 272.81 584.88 269.30
C 575.33 263.72 565.71 258.38 556.18 252.76
Q 543.46 245.25 529.01 237.40
C 526.09 235.81 523.18 238.05 520.84 239.40
Q 486.35 259.25 454.41 277.19
C 449.33 280.04 444.50 283.13 439.38 286.00
C 396.42 310.07 354.97 334.50 311.75 359.32
C 303.98 363.78 296.19 367.73 288.36 372.55
Z" />
    <path fill="#000000" d="
M 288.36 372.55
C 296.19 367.73 303.98 363.78 311.75 359.32
C 354.97 334.50 396.42 310.07 439.38 286.00
C 444.50 283.13 449.33 280.04 454.41 277.19
Q 486.35 259.25 520.84 239.40
C 523.18 238.05 526.09 235.81 529.01 237.40
Q 543.46 245.25 556.18 252.76
C 565.71 258.38 575.33 263.72 584.88 269.30
Q 590.87 272.81 596.36 275.89
Q 642.07 301.60 686.59 327.66
Q 695.36 332.79 703.94 337.63
Q 720.54 347.02 736.99 356.67
C 747.84 363.04 758.78 368.67 769.21 375.57
Q 771.24 376.92 771.27 379.24
C 771.41 393.23 771.08 407.20 771.10 420.75
Q 771.24 492.83 771.32 563.01
Q 771.35 592.86 771.09 625.40
C 771.02 634.22 771.31 643.03 771.33 651.84
C 771.34 655.97 770.92 660.09 771.17 664.17
C 771.28 666.13 769.72 666.64 768.24 667.39
C 759.89 671.65 750.47 677.58 743.89 681.25
Q 719.97 694.62 694.52 708.98
Q 675.31 719.83 657.07 730.51
Q 650.31 734.47 642.74 738.60
Q 635.38 742.61 628.37 746.66
Q 619.49 751.80 610.99 756.55
C 603.08 760.97 595.30 765.83 587.49 770.22
Q 561.68 784.69 535.28 799.51
Q 531.41 801.68 528.03 803.40
A 3.89 3.87 44.1 0 1 524.60 803.45
Q 518.51 800.58 514.11 798.09
Q 473.07 774.91 430.68 750.79
Q 427.64 749.06 424.35 747.21
Q 398.61 732.69 373.44 717.99
Q 364.54 712.79 356.12 707.99
Q 325.99 690.82 295.86 673.65
C 292.21 671.57 288.44 669.95 284.75 667.99
Q 283.26 667.20 283.26 665.50
L 283.31 377.31
A 2.54 2.50 -18.7 0 1 284.32 375.30
Q 286.25 373.85 288.36 372.55
Z
M 513.68 280.66
C 497.58 289.66 480.32 299.99 463.70 309.62
C 437.16 325.00 410.51 340.74 383.60 356.00
Q 350.83 374.58 318.31 393.28
A 1.61 1.59 -15.5 0 0 317.51 394.68
Q 317.53 398.07 317.51 401.50
Q 316.98 506.07 317.31 647.52
A 2.32 2.31 -73.5 0 0 318.34 649.43
Q 321.96 651.83 325.57 653.90
Q 380.89 685.65 443.86 721.63
Q 480.75 742.71 518.39 765.10
Q 522.44 767.51 526.55 769.57
Q 527.00 769.80 527.43 769.53
Q 537.69 763.06 548.16 756.93
C 589.23 732.88 630.35 708.75 671.92 685.55
Q 694.99 672.67 719.26 658.53
C 723.66 655.97 728.73 653.56 733.52 650.81
Q 735.24 649.82 736.70 648.58
Q 737.08 648.26 737.08 647.77
L 737.04 395.09
A 1.12 1.11 -73.3 0 0 736.54 394.16
Q 730.99 390.58 725.22 387.36
C 658.65 350.15 593.31 312.45 526.51 273.82
A 0.54 0.51 44.6 0 0 525.98 273.81
Q 519.83 277.22 513.68 280.66
Z" />
    <path fill="#fbfcfc" d="
M 513.68 280.66
Q 519.83 277.22 525.98 273.81
A 0.54 0.51 44.6 0 1 526.51 273.82
C 593.31 312.45 658.65 350.15 725.22 387.36
Q 730.99 390.58 736.54 394.16
A 1.12 1.11 -73.3 0 1 737.04 395.09
L 737.08 647.77
Q 737.08 648.26 736.70 648.58
Q 735.24 649.82 733.52 650.81
C 728.73 653.56 723.66 655.97 719.26 658.53
Q 694.99 672.67 671.92 685.55
C 630.35 708.75 589.23 732.88 548.16 756.93
Q 537.69 763.06 527.43 769.53
Q 527.00 769.80 526.55 769.57
Q 522.44 767.51 518.39 765.10
Q 480.75 742.71 443.86 721.63
Q 380.89 685.65 325.57 653.90
Q 321.96 651.83 318.34 649.43
A 2.32 2.31 -73.5 0 1 317.31 647.52
Q 316.98 506.07 317.51 401.50
Q 317.53 398.07 317.51 394.68
A 1.61 1.59 -15.5 0 1 318.31 393.28
Q 350.83 374.58 383.60 356.00
C 410.51 340.74 437.16 325.00 463.70 309.62
C 480.32 299.99 497.58 289.66 513.68 280.66
Z
M 357.20 627.75
L 526.37 724.91
Q 526.71 725.11 527.06 724.92
Q 533.51 721.42 540.41 717.43
Q 609.85 677.27 679.26 637.08
C 684.97 633.77 690.80 630.66 696.53 627.30
A 1.66 1.66 0.0 0 0 697.35 625.87
L 697.37 417.35
A 1.30 1.28 -73.6 0 0 696.79 416.27
Q 690.97 412.52 683.31 408.17
Q 663.47 396.91 647.04 387.72
Q 638.52 382.95 629.75 377.79
C 595.90 357.88 561.79 338.70 527.43 318.37
A 1.54 1.53 46.7 0 0 525.97 318.32
C 520.73 320.93 515.84 323.93 510.80 326.81
Q 434.06 370.76 358.13 414.67
Q 356.96 415.35 356.96 416.70
L 356.98 627.36
Q 356.98 627.62 357.20 627.75
Z" />
    <path fill="#000000" d="
M 357.20 627.75
Q 356.98 627.62 356.98 627.36
L 356.96 416.70
Q 356.96 415.35 358.13 414.67
Q 434.06 370.76 510.80 326.81
C 515.84 323.93 520.73 320.93 525.97 318.32
A 1.54 1.53 46.7 0 1 527.43 318.37
C 561.79 338.70 595.90 357.88 629.75 377.79
Q 638.52 382.95 647.04 387.72
Q 663.47 396.91 683.31 408.17
Q 690.97 412.52 696.79 416.27
A 1.30 1.28 -73.6 0 1 697.37 417.35
L 697.35 625.87
A 1.66 1.66 0.0 0 1 696.53 627.30
C 690.80 630.66 684.97 633.77 679.26 637.08
Q 609.85 677.27 540.41 717.43
Q 533.51 721.42 527.06 724.92
Q 526.71 725.11 526.37 724.91
L 357.20 627.75
Z
M 499.36 595.75
Q 498.71 595.77 499.12 595.27
C 511.03 580.63 522.83 565.23 535.06 550.52
C 545.92 537.47 556.57 523.88 567.08 511.25
C 575.93 500.62 585.06 489.87 593.65 479.10
Q 601.09 469.77 610.38 458.63
Q 613.80 454.53 614.00 450.65
Q 614.47 441.65 614.01 426.14
Q 613.91 422.68 612.06 419.75
Q 607.25 412.17 598.00 412.14
C 550.75 411.98 503.96 412.00 456.72 412.19
Q 450.49 412.21 447.62 413.33
C 441.55 415.68 438.50 421.04 438.56 427.68
C 438.60 431.78 438.66 435.90 438.64 440.01
C 438.58 448.28 443.86 454.12 452.32 454.07
Q 504.03 453.73 555.23 454.05
Q 557.39 454.07 556.02 455.74
Q 515.26 505.35 471.48 558.63
C 461.92 570.27 452.36 582.18 442.37 593.87
Q 439.42 597.31 439.21 601.06
Q 438.84 607.43 438.64 617.32
Q 438.50 624.63 440.34 628.31
Q 444.80 637.24 455.85 637.24
Q 525.02 637.28 596.14 637.22
C 605.31 637.22 613.87 633.79 614.15 623.08
Q 614.32 616.39 614.19 609.01
C 614.03 599.83 608.38 595.13 599.47 595.16
Q 555.76 595.29 503.84 595.26
C 502.20 595.26 500.89 595.69 499.36 595.75
Z" />
    <path fill="#fbfcfc" d="
M 499.36 595.75
C 500.89 595.69 502.20 595.26 503.84 595.26
Q 555.76 595.29 599.47 595.16
C 608.38 595.13 614.03 599.83 614.19 609.01
Q 614.32 616.39 614.15 623.08
C 613.87 633.79 605.31 637.22 596.14 637.22
Q 525.02 637.28 455.85 637.24
Q 444.80 637.24 440.34 628.31
Q 438.50 624.63 438.64 617.32
Q 438.84 607.43 439.21 601.06
Q 439.42 597.31 442.37 593.87
C 452.36 582.18 461.92 570.27 471.48 558.63
Q 515.26 505.35 556.02 455.74
Q 557.39 454.07 555.23 454.05
Q 504.03 453.73 452.32 454.07
C 443.86 454.12 438.58 448.28 438.64 440.01
C 438.66 435.90 438.60 431.78 438.56 427.68
C 438.50 421.04 441.55 415.68 447.62 413.33
Q 450.49 412.21 456.72 412.19
C 503.96 412.00 550.75 411.98 598.00 412.14
Q 607.25 412.17 612.06 419.75
Q 613.91 422.68 614.01 426.14
Q 614.47 441.65 614.00 450.65
Q 613.80 454.53 610.38 458.63
Q 601.09 469.77 593.65 479.10
C 585.06 489.87 575.93 500.62 567.08 511.25
C 556.57 523.88 545.92 537.47 535.06 550.52
C 522.83 565.23 511.03 580.63 499.12 595.27
Q 498.71 595.77 499.36 595.75
Z" />
</svg>